<?xml version="1.0" encoding="UTF-8" standalone="no"?><!DOCTYPE svg PUBLIC "-//W3C//DTD SVG 1.1//EN" "http://www.w3.org/Graphics/SVG/1.1/DTD/svg11.dtd"><svg width="100%" height="100%" viewBox="0 0 2134 2134" version="1.1" xmlns="http://www.w3.org/2000/svg" xmlns:xlink="http://www.w3.org/1999/xlink" xml:space="preserve" xmlns:serif="http://www.serif.com/" style="fill-rule:evenodd;clip-rule:evenodd;stroke-linecap:round;stroke-linejoin:round;stroke-miterlimit:1.5;"><g><circle cx="1066.67" cy="1066.67" r="1044.49" style="stroke:#000;stroke-width:41.67px;"/><g><path d="M1361.15,929.978c19.446,-25.961 95.193,-264.14 158.954,-317.918c-0,-0 -169.62,-75.063 -208.367,-0c-11.168,21.635 -42.598,42.224 -43.727,69.731c-1.047,25.393 73.28,191.562 93.14,248.187Z" style="fill:#023600;fill-rule:nonzero;"/><path d="M1361.23,926.928c-5.036,24.469 238.559,594.249 255.283,629.738l169.858,-0c33.861,-0 66.437,-0.203 86.544,-35.626c38.829,-68.408 -14.263,-183.331 -41.767,-243.629c-18.28,-40.069 -251.123,-634.824 -311.041,-664.405c-29.023,-14.327 -153.235,286.493 -158.877,313.922Z" style="fill:#77bc4a;fill-rule:nonzero;"/><path d="M1221.71,784.73c-34.784,93.79 -154.87,360.009 -155.04,405.011c-0.097,25.5 71.602,202.65 95.888,259.412c13.822,-27.068 169.282,-380.318 156.214,-415.575c-46.571,-125.657 -46.614,-126.283 -97.062,-248.848Z" style="fill:#023600;fill-rule:nonzero;"/><path d="M519.322,1556.67c24.78,-96.116 338.813,-893.046 370.731,-977.199l-175.789,-0.768c-31.902,-0 -79.558,3.634 -107.305,23.25c-65.616,46.382 -89.748,139.13 -119.135,213.252c-46.957,118.436 -165.208,431.284 -181.168,465.777c-28.708,62.034 -87.61,174.661 -44.947,243.038c22.15,35.499 52.792,32.65 87.755,32.65l169.858,-0m87.224,-0l211.175,-0c33.14,-0 71.666,5.886 99.504,-18.912c18.18,-16.191 222.881,-537.441 286.808,-702.239c35.927,-92.609 70.363,-224.204 170.092,-256.048c-120.874,0 -123.62,0.058 -392.489,2.122c-21.737,0.166 -369.466,955.134 -375.09,975.077Z" style="fill:#065d00;fill-rule:nonzero;"/><path d="M1318.77,1034.54c-29.45,83.974 -146.961,345.621 -155.326,390.282c-6.34,33.848 22.398,91.387 45.999,113.113c26.383,24.291 63.077,18.73 94.896,18.73l215.765,-0c-43.408,-119.417 -175.084,-461.863 -201.334,-522.125Z" style="fill:#77bc4a;fill-rule:nonzero;"/><rect x="456.868" y="1504.11" width="205.546" height="52.558" style="fill:#065d00;"/><path d="M1084.01,1137.18l-17.338,52.558" style="fill:none;"/><rect x="1451.54" y="1504.11" width="205.546" height="52.558" style="fill:#77bc4a;"/></g></g></svg>