<svg id="Capa_1" enable-background="new 0 0 510.901 510.901" height="512" viewBox="0 0 510.901 510.901" width="512" xmlns="http://www.w3.org/2000/svg"><g><g><path d="m483.927 224.185c-15.602-49.641-25.629-72.626-30.219-81.911l-.002-.003c-3.69-7.601-13.042-23.957-13.414-24.607-1.31-1.599-33.786-40.463-112.059-69.209l-10.343 28.16c37.01 13.592 62.342 29.288 78.034 41.089-43.344-12.925-94.883-20.835-140.53-20.835-45.702 0-97.303 7.933-140.679 20.886 14.528-10.779 40.946-27.464 78.183-41.14l-10.343-28.16c-78.272 28.746-110.749 67.61-112.059 69.209 0 0-7.715 12.454-14.197 26.129-3.885 8.196-13.949 26.91-29.536 80.716-19.549 67.5-26.492 162.909-26.763 166.726 3.451 7.549 43.451 71.212 151.089 71.212l29.495-42.71c24.345 6.315 49.46 9.51 74.812 9.51 25.406 0 50.571-3.209 74.962-9.549l29.313 42.749c109.779 0 145.613-61.496 151.23-71.384-.434-4.545-11.306-117.023-26.974-166.878zm-28.73 181.831c-22.833 16.16-49.659 24.98-79.833 26.267l-15.133-22.069c20.871-7.865 40.895-18.099 59.712-30.624l-16.623-24.973c-20.989 13.971-43.649 24.781-67.368 32.266v.029s-39.276 12.335-80.555 12.335-80.445-12.299-80.445-12.299v-.031c-23.759-7.486-46.457-18.308-67.478-32.3l-16.624 24.972c18.85 12.547 38.912 22.795 59.823 30.665l-15.213 22.029c-30.187-1.281-57.024-10.102-79.865-26.268-12.734-9.013-20.938-18.15-24.881-23.069 1.74-20.548 8.86-94.827 24.869-150.091 12.015-41.475 20.309-60.884 24.837-70.255 0 0 116.109-35.732 174.977-35.732 58.82 0 130.587 14.613 174.584 35.546 4.757 10.838 13.226 32.259 25.327 70.765 12.767 40.623 22.29 126.948 24.665 149.897-4.001 4.971-12.168 14.016-24.776 22.94z"/></g><path d="m156.038 252.991h30v50h-30z"/><path d="m324.754 252.991h30v50h-30z"/></g></svg>