<svg id="Capa_1" enable-background="new 0 0 508 508" height="512" viewBox="0 0 508 508" width="512" xmlns="http://www.w3.org/2000/svg"><g><path d="m264.1 498c0 5.51-4.49 10-10.01 10-5.51 0-10-4.49-10-10s4.49-10 10-10c5.52 0 10.01 4.49 10.01 10zm-220.1 0v-12.65c0-66.672 45.22-103.03 65.02-114.9 26.891-16.11 55.775-28.29 85.98-36.293v-16.101c-5.036-4.445-9.64-9.5-13.708-15.134-11.978-16.589-21.754-34.575-29.122-53.565-6.743-.921-12.908-5.212-16.078-11.925-3.023-6.399-23.992-45.189-27.205-52.092-8.145-17.501 2.5-34.791 15.995-40.357 2.247-.927 4.557-1.612 6.907-2.003-2.185-8.939-3.289-18.132-3.289-27.479 0-63.688 51.813-115.501 115.5-115.501 11.192 0 21.792 4.281 29.846 12.054.086.083.221.083.307 0 8.056-7.773 18.655-12.054 29.847-12.054 43.285 0 78.5 35.215 78.5 78.5v18.211c0 15.681-2.153 31.117-6.402 46.079 2.401.389 4.798 1.016 7.072 2.045 16.604 7.519 23.088 26.1 15.994 40.357-3.391 6.815-24.181 45.69-27.205 52.092-3.169 6.709-9.332 11-16.07 11.924-7.372 19.036-17.163 37.064-29.165 53.69-4.073 5.641-8.682 10.703-13.724 15.153v16.105c30.204 8.003 59.089 20.183 85.98 36.293 19.8 11.87 65.02 48.228 65.02 114.9v12.651c0 5.523-4.477 10-10 10h-154.89c-.01 0-.01 0-.02 0-5.731 0-10.359-4.847-9.978-10.669.348-5.315 5.003-9.331 10.329-9.331h144.559c0-42.226-21.19-79.95-55.31-100.39-24.087-14.434-49.883-25.527-76.835-33.047-5.39 27.014-29.279 47.437-57.855 47.437-28.575 0-52.465-20.422-57.855-47.437-26.946 7.52-52.749 18.613-76.835 33.047-34.12 20.44-55.31 57.003-55.31 100.39h145.1c5.74 0 10.362 4.872 9.967 10.695-.361 5.305-5.013 9.305-10.33 9.305h-154.737c-5.523 0-10-4.477-10-10zm104.536-380.967c.923-1.085 14.722-18.033 38.471-18.033 11.846 0 23.224 4.128 32.234 11.488 8.3 6.779 18.868 10.512 29.759 10.512 25.773 0 46.419-20.729 47.002-47.191.12-5.435 4.559-9.779 9.996-9.78 5.436-.001 9.877 4.341 10 9.776.287 12.77 7.16 23.843 17.939 28.898 10.601 4.972 19.472 12.499 25.978 21.709 1.72-9.093 2.586-18.347 2.586-27.7v-18.212c0-32.257-26.243-58.5-58.5-58.5-5.984 0-11.651 2.289-15.958 6.445-7.874 7.602-20.211 7.601-28.086 0-4.306-4.156-9.973-6.445-15.957-6.445-52.659 0-95.968 42.29-95.464 97.033zm144.464 214.34c-23.677 11.176-51.032 12.466-78 .004v11.623c0 21.505 17.495 39 39 39s39-17.495 39-39zm17.508-40.181c12.404-17.182 22.238-35.993 29.205-55.92 1.223-3.497 5.868-8.788 13.739-5.691 3.71-7.903 24.601-46.532 27.629-52.932 2.307-4.875-.483-11.224-5.726-13.404-2.961-1.231-6.237-1.016-9.116.455-6.207 3.171-13.884-.571-14.676-7.431-1.799-15.573-11.894-28.787-26.119-35.458-7.19-3.372-13.322-8.318-18.099-14.371-3.009 5.414-6.915 10.285-11.204 14.907-18.98 20.46-58.658 29.557-89.552 4.632-12.052-9.724-29.976-9.139-41.035 2.08-6.016 6.103-9.554 14.341-9.554 22.758v3.937c.032 7.345-7.774 12.248-14.486 8.938-2.78-1.371-5.958-1.432-8.818-.296-4.535 1.8-8.406 7.671-5.726 13.403 3 6.416 24.352 45.623 27.514 52.784 8.806-3.065 12.939 3.225 13.854 5.833 6.974 19.879 16.788 38.653 29.169 55.8 13.315 18.44 33.906 29.016 56.49 29.014 22.593-.004 43.191-10.587 56.511-29.038zm158.492-231.192v-50c0-5.523-4.477-10-10-10h-50c-5.523 0-10 4.477-10 10s4.477 10 10 10h40v40c0 5.523 4.477 10 10 10s10-4.477 10-10zm0 273v-50c0-5.523-4.477-10-10-10s-10 4.477-10 10v40h-40c-5.523 0-10 4.477-10 10s4.477 10 10 10h50c5.523 0 10-4.477 10-10zm-410-273v-40h40c5.523 0 10-4.477 10-10s-4.477-10-10-10h-50c-5.523 0-10 4.477-10 10v50c0 5.523 4.477 10 10 10s10-4.477 10-10zm50 273c0-5.523-4.477-10-10-10h-40v-40c0-5.523-4.477-10-10-10s-10 4.477-10 10v50c0 5.523 4.477 10 10 10h50c5.523 0 10-4.477 10-10z"/></g></svg>