<svg id="_x31__x2C_5" enable-background="new 0 0 24 24" height="512" viewBox="0 0 24 24" width="512" xmlns="http://www.w3.org/2000/svg"><path d="m20.48 4.816c-.181 0-.361-.064-.505-.196-2.207-2.012-5.039-3.12-7.975-3.12s-5.768 1.108-7.975 3.121c-.307.279-.781.256-1.06-.049-.279-.306-.257-.781.049-1.06 2.485-2.265 5.676-3.512 8.986-3.512s6.501 1.247 8.986 3.512c.306.279.328.753.049 1.06-.148.162-.351.244-.555.244z"/><path d="m21.75 9.717c-.241 0-.479-.116-.623-.332-2.082-3.1-5.494-4.951-9.127-4.951s-7.045 1.851-9.127 4.951c-.231.345-.698.436-1.041.205-.344-.231-.436-.697-.205-1.041 2.361-3.515 6.239-5.614 10.373-5.614s8.012 2.099 10.373 5.615c.231.344.14.81-.205 1.041-.128.085-.273.126-.418.126z"/><path d="m9.631 24c-.193 0-.386-.074-.533-.222-.164-.165-4.007-4.088-4.007-7.865 0-3.92 3.099-7.109 6.909-7.109s6.909 3.189 6.909 7.109c0 .414-.336.75-.75.75s-.75-.336-.75-.75c0-3.093-2.426-5.609-5.409-5.609s-5.409 2.516-5.409 5.609c0 3.167 3.537 6.773 3.573 6.809.292.294.29.769-.005 1.061-.146.145-.337.217-.528.217z"/><path d="m14.369 24c-1.804 0-5.986-3.432-6.391-7.254-.143-1.351.287-2.733 1.149-3.697.75-.838 1.763-1.303 2.852-1.309h.021c1.062 0 2.066.417 2.83 1.176.798.793 1.237 1.858 1.237 2.998v.489c0 1.205.938 2.185 2.092 2.185s2.093-.98 2.093-2.185v-.171c0-4.67-3.383-8.555-7.702-8.843-2.251-.153-4.412.625-6.079 2.183-1.73 1.618-2.722 3.93-2.722 6.342 0 1.984.672 3.917 1.892 5.443.258.324.206.795-.118 1.054-.323.259-.795.207-1.054-.118-1.431-1.791-2.22-4.057-2.22-6.38 0-2.826 1.166-5.537 3.197-7.437 1.973-1.846 4.532-2.765 7.203-2.585 5.104.341 9.103 4.883 9.103 10.34v.171c0 2.032-1.612 3.685-3.593 3.685s-3.592-1.653-3.592-3.685v-.489c0-.738-.282-1.424-.794-1.934-.48-.478-1.109-.74-1.772-.74-.005 0-.009 0-.014 0-.845.004-1.414.443-1.742.81-.585.653-.875 1.603-.776 2.539.331 3.118 3.914 5.913 4.9 5.913.414 0 .75.336.75.75s-.336.749-.75.749z"/><path d="m17.152 22.533c-2.684 0-5.961-3.28-5.961-7.109 0-.414.336-.75.75-.75s.75.336.75.75c0 2.968 2.495 5.609 4.461 5.609.414 0 .75.336.75.75s-.336.75-.75.75z"/></svg>