<?xml version="1.0" encoding="UTF-8"?>
<svg xmlns="http://www.w3.org/2000/svg" width="512" height="512" viewBox="0 0 512 512"><g><path d="M476,200H368V48a8,8,0,0,0-8-8H152a8,8,0,0,0-8,8V200H36A28.031,28.031,0,0,0,8,228V444a28.031,28.031,0,0,0,28,28H476a28.031,28.031,0,0,0,28-28V228A28.031,28.031,0,0,0,476,200ZM368,248v24a8,8,0,0,0,8,8h6.92L360,307.5,337.08,280H344a8,8,0,0,0,8-8V248ZM160,56H352V232h-8V112a8,8,0,0,0-8-8,32.036,32.036,0,0,1-32-32,8,8,0,0,0-8-8H216a8,8,0,0,0-8,8,32.036,32.036,0,0,1-32,32,8,8,0,0,0-8,8V232h-8Zm96,120a56.062,56.062,0,0,0-56,56H184V119.33A48.116,48.116,0,0,0,223.33,80h65.34A48.116,48.116,0,0,0,328,119.33V232H312A56.062,56.062,0,0,0,256,176Zm40,56H216a40,40,0,0,1,80,0ZM160,248v48a8,8,0,0,0,8,8h6.92L152,331.5,129.08,304H136a8,8,0,0,0,8-8V248ZM24,306.25l16,4v51.5l-16,4ZM488,444a12.01,12.01,0,0,1-12,12H36a12.01,12.01,0,0,1-12-12V382.25l25.94-6.49A8,8,0,0,0,56,368V304a8,8,0,0,0-6.06-7.76L24,289.75V228a12.01,12.01,0,0,1,12-12H144v16H112a8,8,0,0,0,0,16h16v40H112a8,8,0,0,0-6.15,13.12l40,48a8.006,8.006,0,0,0,12.3,0l40-48A8,8,0,0,0,192,288H176V248H336v16H320a8,8,0,0,0-6.15,13.12l40,48a8.006,8.006,0,0,0,12.3,0l40-48A8,8,0,0,0,400,264H384V248h16a8,8,0,0,0,0-16H368V216H476a12.01,12.01,0,0,1,12,12Z"/><path d="M472,296a8,8,0,0,0-8,8v64a8,8,0,0,0,16,0V304A8,8,0,0,0,472,296Z"/><path d="M296,360H280V312a8,8,0,0,0-8-8H240a8,8,0,0,0-8,8v48H216a8,8,0,0,0-6.146,13.122l40,48a8,8,0,0,0,12.292,0l40-48A8,8,0,0,0,296,360Zm-40,43.5L233.08,376H240a8,8,0,0,0,8-8V320h16v48a8,8,0,0,0,8,8h6.92Z"/></g></svg>
