<?xml version="1.0" encoding="UTF-8" standalone="no"?><!DOCTYPE svg PUBLIC "-//W3C//DTD SVG 1.1//EN" "http://www.w3.org/Graphics/SVG/1.1/DTD/svg11.dtd">
<svg width="100%" height="100%" viewBox="0 0 2000 2000" version="1.1" xmlns="http://www.w3.org/2000/svg" xmlns:xlink="http://www.w3.org/1999/xlink"
    xml:space="preserve"
    style="fill-rule:evenodd;clip-rule:evenodd;stroke-linejoin:round;stroke-miterlimit:2;"><path d="M1900,250l-1800,0c-54.932,0.716 -99.284,45.068 -100,100l0,1233.33c0,18.409 14.925,33.334 33.333,33.334l66.667,-0l0,100c0,18.408 14.925,33.333 33.333,33.333l200,0c18.409,0 33.334,-14.925 33.334,-33.333l-0,-100l1266.67,-0l0,100c0,18.408 14.925,33.333 33.334,33.333l200,0c18.408,0 33.333,-14.925 33.333,-33.333l0,-100l66.667,-0c18.408,-0 33.333,-14.925 33.333,-33.334l0,-1233.33c-0.716,-54.932 -45.068,-99.284 -100,-100Zm-1833.33,100c0.911,-18.018 15.315,-32.422 33.333,-33.333l1800,-0c18.018,0.911 32.422,15.315 33.333,33.333l0,1033.33l-1866.67,0l-0,-1033.33Zm233.333,1333.33l-133.333,0l-0,-66.666l133.333,-0l-0,66.666Zm1533.33,0l-133.333,0l0,-66.666l133.333,-0l0,66.666Zm100,-133.333l-1866.67,0l-0,-100l1866.67,0l0,100Z" style="fill-rule:nonzero;"/><path d="M1833.33,483.333l-666.666,0c-18.409,0 -33.334,14.925 -33.334,33.334l0,666.666c0,18.409 14.925,33.334 33.334,33.334l666.666,-0c18.409,-0 33.334,-14.925 33.334,-33.334l-0,-666.666c-0,-18.409 -14.925,-33.334 -33.334,-33.334Zm-33.333,666.667l-600,0l0,-600l600,0l0,600Z" style="fill-rule:nonzero;"/><path d="M1033.33,750l-80.859,0c-34.912,-122.103 -130.371,-217.562 -252.474,-252.474l0,-80.859c0,-18.409 -14.925,-33.334 -33.333,-33.334l-133.334,0c-18.408,0 -33.333,14.925 -33.333,33.334l-0,80.859c-122.103,34.912 -217.562,130.371 -252.474,252.474l-80.859,0c-18.409,0 -33.334,14.925 -33.334,33.333l0,133.334c0,18.408 14.925,33.333 33.334,33.333l80.859,0c34.912,122.103 130.371,217.562 252.474,252.474l-0,80.859c-0,18.409 14.925,33.334 33.333,33.334l133.334,-0c18.408,-0 33.333,-14.925 33.333,-33.334l-0,-80.859c122.103,-34.912 217.562,-130.371 252.474,-252.474l80.859,0c18.409,0 33.334,-14.925 33.334,-33.333l-0,-133.334c-0,-18.408 -14.925,-33.333 -33.334,-33.333Zm-466.666,-300l66.666,0l0,35.026c-11.002,-0.993 -22.07,-1.693 -33.333,-1.693c-11.263,0 -22.331,0.7 -33.333,1.693l-0,-35.026Zm-366.667,433.333l-0,-66.666l35.026,-0c-0.993,11.002 -1.693,22.07 -1.693,33.333c0,11.263 0.7,22.331 1.693,33.333l-35.026,0Zm433.333,366.667l-66.666,0l-0,-35.026c11.002,0.993 22.07,1.693 33.333,1.693c11.263,-0 22.331,-0.7 33.333,-1.693l0,35.026Zm-33.333,-100c-165.69,0 -300,-134.31 -300,-300c-0,-165.69 134.31,-300 300,-300c165.69,0 300,134.31 300,300c-0.195,165.609 -134.391,299.805 -300,300Zm400,-266.667l-35.026,0c0.993,-11.002 1.693,-22.07 1.693,-33.333c-0,-11.263 -0.7,-22.331 -1.693,-33.333l35.026,-0l0,66.666Z" style="fill-rule:nonzero;"/><path d="M1300,616.667l66.667,-0c18.408,-0 33.333,14.925 33.333,33.333l0,66.667c0,18.408 -14.925,33.333 -33.333,33.333l-66.667,0c-18.408,0 -33.333,-14.925 -33.333,-33.333l-0,-66.667c-0,-18.408 14.925,-33.333 33.333,-33.333Z" style="fill-rule:nonzero;"/><path d="M1466.67,616.667l66.666,-0c18.409,-0 33.334,14.925 33.334,33.333l-0,66.667c-0,18.408 -14.925,33.333 -33.334,33.333l-66.666,0c-18.409,0 -33.334,-14.925 -33.334,-33.333l0,-66.667c0,-18.408 14.925,-33.333 33.334,-33.333Z" style="fill-rule:nonzero;"/><path d="M1633.33,616.667l66.667,-0c18.408,-0 33.333,14.925 33.333,33.333l0,66.667c0,18.408 -14.925,33.333 -33.333,33.333l-66.667,0c-18.408,0 -33.333,-14.925 -33.333,-33.333l0,-66.667c0,-18.408 14.925,-33.333 33.333,-33.333Z" style="fill-rule:nonzero;"/><path d="M1300,783.333l66.667,0c18.408,0 33.333,14.925 33.333,33.334l0,66.666c0,18.409 -14.925,33.334 -33.333,33.334l-66.667,-0c-18.408,-0 -33.333,-14.925 -33.333,-33.334l-0,-66.666c-0,-18.409 14.925,-33.334 33.333,-33.334Z" style="fill-rule:nonzero;"/><path d="M1466.67,783.333l66.666,0c18.409,0 33.334,14.925 33.334,33.334l-0,66.666c-0,18.409 -14.925,33.334 -33.334,33.334l-66.666,-0c-18.409,-0 -33.334,-14.925 -33.334,-33.334l0,-66.666c0,-18.409 14.925,-33.334 33.334,-33.334Z" style="fill-rule:nonzero;"/><path d="M1633.33,783.333l66.667,0c18.408,0 33.333,14.925 33.333,33.334l0,66.666c0,18.409 -14.925,33.334 -33.333,33.334l-66.667,-0c-18.408,-0 -33.333,-14.925 -33.333,-33.334l0,-66.666c0,-18.409 14.925,-33.334 33.333,-33.334Z" style="fill-rule:nonzero;"/><path d="M1300,950l66.667,0c18.408,0 33.333,14.925 33.333,33.333l0,66.667c0,18.408 -14.925,33.333 -33.333,33.333l-66.667,0c-18.408,0 -33.333,-14.925 -33.333,-33.333l-0,-66.667c-0,-18.408 14.925,-33.333 33.333,-33.333Z" style="fill-rule:nonzero;"/><path d="M1466.67,950l66.666,0c18.409,0 33.334,14.925 33.334,33.333l-0,66.667c-0,18.408 -14.925,33.333 -33.334,33.333l-66.666,0c-18.409,0 -33.334,-14.925 -33.334,-33.333l0,-66.667c0,-18.408 14.925,-33.333 33.334,-33.333Z" style="fill-rule:nonzero;"/><path d="M1633.33,950l66.667,0c18.408,0 33.333,14.925 33.333,33.333l0,66.667c0,18.408 -14.925,33.333 -33.333,33.333l-66.667,0c-18.408,0 -33.333,-14.925 -33.333,-33.333l0,-66.667c0,-18.408 14.925,-33.333 33.333,-33.333Z" style="fill-rule:nonzero;"/><g><g><g><path d="M812.483,759.035c-0.483,-2.926 -2.695,-5.274 -5.582,-5.941c-277.312,-64.078 -333.806,43.929 -345.225,93.347c-14.813,64.108 24.051,118.46 96.705,135.248c91.76,21.203 131.158,-61.672 152.328,-106.187c28.483,-59.941 67.57,-89.747 98.431,-109.036c2.516,-1.571 3.84,-4.501 3.343,-7.431Zm-115.027,110.169c-26.855,56.479 -61.69,115.313 -135.773,98.195c-64.108,-14.814 -98.555,-62.094 -85.717,-117.656c10.201,-44.144 60.953,-139.224 310.737,-86.113c-29.63,20.537 -63.507,51.382 -89.247,105.574Z" style="fill-rule:nonzero;stroke:#000;stroke-width:19.6px;"/></g><g><path d="M681.564,803.646c-0.91,-3.944 -4.843,-6.403 -8.78,-5.522c-129.145,29.441 -234.312,148.737 -244.129,191.224c-0.912,3.944 1.55,7.885 5.494,8.796c3.944,0.912 7.885,-1.55 8.797,-5.494c7.717,-33.397 102.681,-150.491 233.097,-180.224c3.943,-0.91 6.417,-4.84 5.521,-8.78Z" style="fill-rule:nonzero;stroke:#000;stroke-width:19.6px;"/></g></g></g></svg>