<svg id="Capa_1" enable-background="new 0 0 512 512" height="512" viewBox="0 0 512 512" width="512" xmlns="http://www.w3.org/2000/svg"><g><path d="m340.319 212.262c5.364-1.311 8.649-6.722 7.338-12.086s-6.722-8.649-12.085-7.338c-5.364 1.311-8.649 6.722-7.338 12.086 1.31 5.364 6.721 8.649 12.085 7.338z"/><circle cx="360.939" cy="467.413" r="10"/><path d="m466.421 0h-210.972c-22.099 0-40.078 17.979-40.078 40.078v75.429c-17.436 1.336-34.585 6.205-50.551 14.548-13.841 7.232-26.046 16.684-36.253 27.898h-113.046c-5.533 0-10.02 4.486-10.02 10.02 0 5.533 4.486 10.02 10.02 10.02h98.079c-5.419 8.947-9.8 18.609-13.011 28.846-4.034 12.863-6.034 26.035-6.049 39.142h-43.902c-5.533 0-10.02 4.486-10.02 10.02s4.486 10.02 10.02 10.02h45.441c2.177 13.967 6.647 27.636 13.385 40.531 5.258 10.064 11.695 19.26 19.124 27.457h-36.889c-5.533 0-10.02 4.486-10.02 10.02s4.486 10.02 10.02 10.02h59.587c.097 0 .192-.012.289-.015 10.528 7.173 22.174 12.83 34.673 16.75 9.67 3.032 19.427 4.877 29.123 5.622v95.517c0 22.099 17.979 40.078 40.078 40.078h210.972c22.099 0 40.078-17.979 40.078-40.078v-427.667c0-25.23-17.23-44.256-40.078-44.256zm-231.011 376.39c8.271-.646 16.408-2.092 24.317-4.259.402.163.813.311 1.243.423 10.732 2.801 21.851 4.222 33.051 4.222 72.121 0 130.796-58.674 130.796-130.796s-58.674-130.796-130.796-130.796c-11.2 0-22.319 1.421-33.051 4.222-.404.106-.792.242-1.171.392-8.058-2.205-16.217-3.629-24.389-4.272v-45.389h251.05v351.687h-251.05zm20.039-356.351h210.972c11.798 0 20.039 9.959 20.039 24.217v5.841h-251.05v-10.02c0-11.049 8.989-20.038 20.039-20.038zm-128.224 277.232c-13.701-26.221-16.37-56.207-7.516-84.436 8.853-28.228 28.169-51.319 54.39-65.02 26.221-13.7 56.208-16.37 84.435-7.516 18.847 5.912 35.77 16.732 48.937 31.292 3.713 4.104 10.049 4.423 14.153.71 4.104-3.712 4.422-10.048.71-14.153-8.035-8.884-17.257-16.577-27.353-22.912 60.63.519 109.795 49.994 109.795 110.744 0 60.801-49.248 110.309-109.948 110.746 25.503-15.965 45.675-40.714 55.364-71.604 3.896-12.427 5.923-25.271 6.023-38.176.042-5.533-4.409-10.054-9.942-10.097-.026 0-.053 0-.079 0-5.497 0-9.975 4.435-10.018 9.942-.084 10.922-1.801 21.801-5.105 32.335-8.853 28.228-28.169 51.319-54.39 65.02s-56.206 16.37-84.436 7.516c-28.228-8.854-51.32-28.17-65.02-54.391zm339.196 194.69h-210.972c-11.05 0-20.039-8.989-20.039-20.039v-30.059h251.05v30.059c0 11.05-8.989 20.039-20.039 20.039z"/><path d="m235.024 285.187v-.867c8.501-3.428 14.928-11.045 16.527-20.558 2.065-12.276-4.571-23.359-16.512-27.58-4.987-1.762-11.083-4.083-14.259-6.48-.126-.393-.165-1.365.264-2.387.403-.957 1.015-1.565 1.818-1.806 4.953-1.491 11.691 1.666 13.676 2.897 4.652 2.948 10.818 1.585 13.794-3.058 2.987-4.659 1.632-10.856-3.026-13.842-.871-.558-5.673-3.512-12.306-5.217-.255-5.307-4.625-9.535-9.995-9.535-5.533 0-10.02 4.486-10.02 10.02v.309c-7.157 2.959-12.403 9.454-13.909 17.44-1.539 8.164 1.202 16.136 7.155 20.805 5.37 4.21 12.848 7.173 20.13 9.748 1.755.62 4.02 1.851 3.43 5.363-.361 2.147-2.211 5.789-6.854 5.819-5.561.042-6.628-.127-10.569-2.705-4.634-3.031-10.841-1.729-13.87 2.901-3.028 4.632-1.73 10.841 2.901 13.87 4.36 2.851 7.885 4.388 11.603 5.186.173 5.382 4.579 9.695 10.003 9.695 5.533.001 10.019-4.485 10.019-10.018z"/><path d="m315.834 245.98c0-49.871-40.572-90.443-90.443-90.443s-90.443 40.572-90.443 90.443 40.572 90.443 90.443 90.443 90.443-40.572 90.443-90.443zm-160.848 0c0-38.821 31.583-70.404 70.404-70.404s70.404 31.583 70.404 70.404-31.583 70.404-70.404 70.404-70.404-31.583-70.404-70.404z"/></g></svg>