<?xml version="1.0" encoding="UTF-8" standalone="no"?><!DOCTYPE svg PUBLIC "-//W3C//DTD SVG 1.1//EN" "http://www.w3.org/Graphics/SVG/1.1/DTD/svg11.dtd"><svg width="100%" height="100%" viewBox="0 0 2134 2134" version="1.1" xmlns="http://www.w3.org/2000/svg" xmlns:xlink="http://www.w3.org/1999/xlink" xml:space="preserve" xmlns:serif="http://www.serif.com/" style="fill-rule:evenodd;clip-rule:evenodd;stroke-linejoin:round;stroke-miterlimit:2;"><g><g><g><g><circle cx="1100" cy="1033.33" r="299.992" style="fill:#023600;"/><path d="M1783.54,632.625l-282.834,-282.833c-37.494,37.502 -88.406,58.594 -141.437,58.594c-53.031,0 -103.943,-21.092 -141.438,-58.594l-801.375,801.375c37.503,37.494 58.595,88.406 58.595,141.437c0,53.031 -21.092,103.943 -58.595,141.438l282.834,282.833c37.494,-37.503 88.406,-58.595 141.437,-58.595c53.031,0 103.943,21.092 141.438,58.595l801.375,-801.375c-37.503,-37.494 -58.595,-88.407 -58.595,-141.438c-0,-53.03 21.092,-103.943 58.595,-141.437Zm-0,0l-282.834,-282.833c-37.494,37.502 -88.406,58.594 -141.437,58.594c-53.031,0 -103.943,-21.092 -141.438,-58.594l-801.375,801.375c37.503,37.494 58.595,88.406 58.595,141.437c0,53.031 -21.092,103.943 -58.595,141.438l282.834,282.833c37.494,-37.503 88.406,-58.595 141.437,-58.595c53.031,0 103.943,21.092 141.438,58.595l801.375,-801.375c-37.503,-37.494 -58.595,-88.407 -58.595,-141.438c-0,-53.03 21.092,-103.943 58.595,-141.437Z" style="fill:#023600;fill-rule:nonzero;"/><path d="M1359.29,66.958l-1225.67,1225.67l707.083,707.083l1225.67,-1225.67l-707.083,-707.084Zm-377.125,1649.92c-37.495,-37.503 -88.407,-58.595 -141.438,-58.595c-53.031,0 -103.943,21.092 -141.437,58.595l-282.834,-282.833c37.503,-37.495 58.595,-88.407 58.595,-141.438c0,-53.031 -21.092,-103.943 -58.595,-141.437l801.375,-801.375c37.495,37.502 88.407,58.594 141.438,58.594c53.031,0 103.943,-21.092 141.437,-58.594l282.834,282.833c-37.503,37.494 -58.595,88.407 -58.595,141.438c-0,53.03 21.092,103.943 58.595,141.437l-801.375,801.375Z" style="fill:#023600;fill-rule:nonzero;"/></g><g><circle cx="1100" cy="1033.33" r="299.992" style="fill:#f0c020;"/><g><path d="M1029.29,962.621l-23.567,-23.567" style="fill:none;fill-rule:nonzero;"/><path d="M1170.71,1104.05l23.566,23.567" style="fill:none;fill-rule:nonzero;"/></g></g><path d="M1783.54,632.625l-282.834,-282.833c-37.494,37.502 -88.406,58.594 -141.437,58.594c-53.031,0 -103.943,-21.092 -141.438,-58.594l-801.375,801.375c37.503,37.494 58.595,88.406 58.595,141.437c0,53.031 -21.092,103.943 -58.595,141.438l282.834,282.833c37.494,-37.503 88.406,-58.595 141.437,-58.595c53.031,0 103.943,21.092 141.438,58.595l801.375,-801.375c-37.503,-37.494 -58.595,-88.407 -58.595,-141.438c-0,-53.03 21.092,-103.943 58.595,-141.437Zm-471.417,612.833c-56.24,56.244 -132.601,87.875 -212.139,87.875c-164.575,0 -300,-135.425 -300,-300c-0,-164.575 135.425,-300 300,-300c79.538,0 155.899,31.632 212.139,87.875c56.243,56.235 87.875,132.592 87.875,212.125c-0,79.534 -31.632,155.891 -87.875,212.125Z" style="fill:#77bc4a;fill-rule:nonzero;"/></g><g><path d="M66.667,2066.67l400,-400" style="fill:none;fill-rule:nonzero;"/><path d="M300,1466.67l-116.667,116.666" style="fill:none;fill-rule:nonzero;"/><path d="M116.667,1650l-50,50" style="fill:none;fill-rule:nonzero;"/><path d="M66.667,1866.67l216.666,-216.667" style="fill:none;fill-rule:nonzero;"/><path d="M600,1766.67l-133.333,133.333" style="fill:none;fill-rule:nonzero;"/><path d="M700,1900l-166.667,166.667" style="fill:none;fill-rule:nonzero;"/><path d="M400,1966.67l-33.333,33.333" style="fill:none;fill-rule:nonzero;"/></g></g><g><g><g><path d="M1100,1366.51c-88.371,0.157 -173.254,-34.944 -235.704,-97.471c-62.73,-62.583 -98.021,-147.644 -98.021,-236.254c-0,-183.076 150.649,-333.725 333.725,-333.725c183.076,0 333.725,150.649 333.725,333.725c-0,183.076 -150.649,333.725 -333.725,333.725Zm-188.562,-144.612c49.99,49.99 117.864,78.104 188.561,78.104c146.289,0 266.666,-120.378 266.666,-266.667c0,-146.289 -120.377,-266.666 -266.666,-266.666c-70.697,-0 -138.571,28.114 -188.562,78.104c-103.278,103.516 -103.278,273.609 0.001,377.125Z" style="fill-rule:nonzero;"/><path d="M1123.57,1184.52c-0.001,-0 -0.001,-0 -0.001,-0c-18.287,-0 -33.334,-15.048 -33.334,-33.334c0,-8.837 3.515,-17.322 9.764,-23.57l70.713,-70.709l-23.575,-23.571l-70.705,70.713c-6.249,6.25 -14.734,9.766 -23.573,9.766c-8.838,-0 -17.323,-3.516 -23.572,-9.766l-70.709,-70.713c-6.249,-6.249 -9.764,-14.733 -9.764,-23.57c0,-8.838 3.515,-17.322 9.764,-23.571l94.279,-94.279c6.249,-6.249 14.734,-9.764 23.571,-9.764c18.287,0 33.334,15.048 33.334,33.334c0,8.838 -3.514,17.322 -9.763,23.571l-70.712,70.709l23.575,23.57l70.704,-70.712c6.249,-6.251 14.734,-9.766 23.573,-9.766c8.838,0 17.323,3.515 23.572,9.766l70.709,70.712c6.249,6.249 9.764,14.734 9.764,23.571c-0,8.838 -3.515,17.322 -9.764,23.571l-94.279,94.279c-6.243,6.259 -14.732,9.775 -23.571,9.763Z" style="fill-rule:nonzero;"/><path d="M1029.29,995.954c-8.839,0.011 -17.327,-3.503 -23.571,-9.758l-23.567,-23.571c-6.249,-6.249 -9.763,-14.733 -9.763,-23.571c-0,-18.286 15.047,-33.334 33.334,-33.334c8.837,-0 17.322,3.514 23.571,9.763l23.571,23.567c6.249,6.249 9.763,14.733 9.763,23.571c0,18.286 -15.047,33.333 -33.333,33.333c-0.002,0 -0.004,0 -0.005,0Z" style="fill-rule:nonzero;"/><path d="M1194.28,1160.95c-8.839,0.012 -17.328,-3.504 -23.571,-9.763l-23.57,-23.566c-6.25,-6.25 -9.765,-14.735 -9.765,-23.573c0,-18.288 15.049,-33.337 33.337,-33.337c8.839,-0 17.324,3.514 23.573,9.764l23.567,23.571c6.249,6.249 9.764,14.733 9.764,23.571c-0,18.286 -15.047,33.333 -33.334,33.333c-0,-0 -0,-0 -0.001,-0Z" style="fill-rule:nonzero;"/></g><path d="M840.725,2033.05c-8.839,0.008 -17.326,-3.507 -23.571,-9.763l-707.104,-707.104c-6.25,-6.249 -9.766,-14.734 -9.766,-23.573c0,-8.838 3.516,-17.324 9.766,-23.573l1225.65,-1225.65c6.249,-6.25 14.734,-9.765 23.573,-9.765c8.838,-0 17.324,3.515 23.573,9.765l707.104,707.104c6.25,6.25 9.766,14.735 9.766,23.573c-0,8.839 -3.516,17.324 -9.766,23.573l-1225.65,1225.65c-6.245,6.257 -14.735,9.773 -23.575,9.763Zm-659.963,-740.438l659.963,659.963l1178.51,-1178.51l-659.963,-659.962l-1178.51,1178.51Z" style="fill-rule:nonzero;"/><path d="M1783.54,665.971c-8.84,0.014 -17.33,-3.502 -23.571,-9.763l-282.842,-282.841c-6.249,-6.249 -9.763,-14.734 -9.763,-23.571c-0,-18.287 15.047,-33.334 33.334,-33.334c8.837,-0 17.322,3.514 23.571,9.763l282.841,282.846c6.247,6.248 9.76,14.731 9.76,23.567c-0,18.285 -15.045,33.331 -33.33,33.333Z" style="fill-rule:nonzero;"/><path d="M982.15,1750.2c-0,0 -0.001,0 -0.001,0c-18.286,0 -33.334,-15.047 -33.334,-33.333c0,-8.838 3.515,-17.322 9.764,-23.571l801.388,-801.387c6.249,-6.249 14.733,-9.764 23.57,-9.764c18.287,0 33.335,15.048 33.335,33.334c-0,8.838 -3.515,17.322 -9.764,23.571l-801.387,801.388c-6.242,6.258 -14.731,9.774 -23.571,9.762Z" style="fill-rule:nonzero;"/><path d="M416.462,1184.52c0,-0 -0,-0 -0.001,-0c-18.286,-0 -33.333,-15.048 -33.333,-33.334c-0,-8.837 3.514,-17.322 9.764,-23.57l801.387,-801.388c6.249,-6.249 14.734,-9.763 23.571,-9.763c18.287,-0 33.334,15.047 33.334,33.334c0,8.837 -3.514,17.322 -9.763,23.571l-801.388,801.387c-6.242,6.259 -14.731,9.775 -23.57,9.763Z" style="fill-rule:nonzero;"/><path d="M699.304,1750.2c-8.839,0.012 -17.328,-3.504 -23.571,-9.762l-282.841,-282.842c-6.249,-6.249 -9.764,-14.733 -9.764,-23.571c0,-18.286 15.048,-33.334 33.335,-33.334c8.837,-0 17.321,3.514 23.57,9.763l282.842,282.842c6.249,6.249 9.764,14.733 9.764,23.571c-0,18.286 -15.047,33.333 -33.334,33.333c-0,0 -0,0 -0.001,0Z" style="fill-rule:nonzero;"/><path d="M416.462,1467.36c-18.285,-0.002 -33.33,-15.049 -33.33,-33.334c0,-8.835 3.513,-17.318 9.76,-23.567c64.55,-64.698 64.55,-171.009 -0,-235.708c-6.249,-6.249 -9.764,-14.733 -9.764,-23.571c0,-18.286 15.048,-33.334 33.334,-33.334c8.838,0 17.322,3.515 23.571,9.764c90.381,90.577 90.381,239.422 0,330c-6.244,6.254 -14.733,9.766 -23.57,9.749Z" style="fill-rule:nonzero;"/><path d="M699.304,1750.2c-18.285,-0.001 -33.33,-15.048 -33.33,-33.333c-0,-8.838 3.514,-17.322 9.764,-23.571c90.58,-90.374 239.419,-90.374 330,0c6.248,6.249 9.763,14.733 9.763,23.571c-0,18.286 -15.048,33.334 -33.334,33.334c-8.838,0 -17.322,-3.514 -23.571,-9.763c-64.699,-64.551 -171.01,-64.551 -235.708,-0c-6.245,6.262 -14.74,9.779 -23.584,9.762Z" style="fill-rule:nonzero;"/><path d="M1359.28,441.708c-61.895,0.174 -121.351,-24.45 -165,-68.333c-6.249,-6.249 -9.763,-14.733 -9.763,-23.571c-0,-18.286 15.047,-33.334 33.334,-33.334c8.837,-0 17.322,3.514 23.571,9.763c31.244,31.245 73.665,48.817 117.852,48.817c44.186,-0 86.608,-17.572 117.852,-48.817c6.249,-6.249 14.733,-9.763 23.571,-9.763c18.286,-0 33.334,15.048 33.334,33.334c-0,8.838 -3.515,17.322 -9.763,23.571c-43.647,43.88 -103.098,68.503 -164.988,68.333Z" style="fill-rule:nonzero;"/><path d="M1783.54,948.817c-8.84,0.012 -17.329,-3.504 -23.571,-9.763c-90.381,-90.577 -90.381,-239.422 -0,-330c6.237,-6.162 14.66,-9.621 23.427,-9.621c18.287,-0 33.334,15.047 33.334,33.333c-0,8.767 -3.459,17.189 -9.62,23.426c-64.55,64.697 -64.55,171.006 0,235.704c6.25,6.249 9.764,14.733 9.764,23.571c0,18.286 -15.047,33.333 -33.333,33.333c-0.001,0 -0.001,0 -0.001,0l-0,0.017Z" style="fill-rule:nonzero;"/></g><path d="M66.667,2100c-0.001,0 -0.001,0 -0.002,0c-18.286,0 -33.333,-15.047 -33.333,-33.333c0,-8.838 3.515,-17.322 9.764,-23.571l400,-400c6.249,-6.249 14.733,-9.764 23.571,-9.764c18.286,0 33.334,15.048 33.334,33.335c-0,8.837 -3.515,17.322 -9.764,23.571l-399.999,400c-6.243,6.258 -14.732,9.774 -23.571,9.762Z" style="fill-rule:nonzero;"/><path d="M183.333,1616.67c-0,-0 -0,-0 -0.001,-0c-18.286,-0 -33.333,-15.048 -33.333,-33.334c-0,-8.837 3.514,-17.322 9.763,-23.57l116.667,-116.667c6.249,-6.249 14.734,-9.764 23.571,-9.764c18.287,0 33.334,15.048 33.334,33.335c0,8.837 -3.514,17.322 -9.763,23.57l-116.667,116.667c-6.242,6.259 -14.731,9.775 -23.571,9.763Z" style="fill-rule:nonzero;"/><path d="M66.667,1733.33c-0.001,0 -0.001,0 -0.002,0c-18.286,0 -33.333,-15.047 -33.333,-33.333c0,-8.837 3.515,-17.322 9.764,-23.571l50,-50c6.249,-6.249 14.733,-9.763 23.571,-9.763c18.286,-0 33.334,15.047 33.334,33.334c-0,8.837 -3.515,17.322 -9.764,23.571l-50,50c-6.242,6.259 -14.731,9.775 -23.57,9.762Z" style="fill-rule:nonzero;"/><path d="M66.667,1900c-0.001,0 -0.001,0 -0.002,0c-18.286,0 -33.333,-15.047 -33.333,-33.333c0,-8.838 3.515,-17.322 9.764,-23.571l216.667,-216.667c6.248,-6.249 14.733,-9.763 23.57,-9.763c18.287,-0 33.335,15.047 33.335,33.334c-0,8.837 -3.515,17.322 -9.764,23.571l-216.666,216.667c-6.243,6.258 -14.732,9.774 -23.571,9.762Z" style="fill-rule:nonzero;"/><path d="M466.667,1933.33c-0.001,0 -0.001,0 -0.002,0c-18.286,0 -33.333,-15.047 -33.333,-33.333c0,-8.837 3.515,-17.322 9.764,-23.571l133.333,-133.333c6.249,-6.249 14.734,-9.764 23.571,-9.764c18.287,0 33.334,15.048 33.334,33.335c0,8.837 -3.514,17.322 -9.763,23.57l-133.333,133.334c-6.243,6.259 -14.732,9.775 -23.571,9.762Z" style="fill-rule:nonzero;"/><path d="M533.333,2100c-0,0 -0,0 -0.001,0c-18.286,0 -33.333,-15.047 -33.333,-33.333c-0,-8.838 3.514,-17.322 9.764,-23.571l166.666,-166.667c6.249,-6.249 14.734,-9.763 23.571,-9.763c18.287,-0 33.334,15.047 33.334,33.334c0,8.837 -3.514,17.322 -9.763,23.571l-166.667,166.667c-6.242,6.258 -14.731,9.774 -23.571,9.762Z" style="fill-rule:nonzero;"/><path d="M366.667,2033.33c-0.001,0 -0.001,0 -0.002,0c-18.286,0 -33.333,-15.047 -33.333,-33.333c0,-8.837 3.515,-17.322 9.764,-23.571l33.333,-33.333c6.249,-6.249 14.734,-9.764 23.571,-9.764c18.287,0 33.334,15.048 33.334,33.335c0,8.837 -3.514,17.322 -9.763,23.571l-33.333,33.333c-6.243,6.259 -14.732,9.775 -23.571,9.762Z" style="fill-rule:nonzero;"/></g></g></svg>