<?xml version="1.0" encoding="UTF-8" standalone="no"?><!DOCTYPE svg PUBLIC "-//W3C//DTD SVG 1.1//EN" "http://www.w3.org/Graphics/SVG/1.1/DTD/svg11.dtd"><svg width="100%" height="100%" viewBox="0 0 2134 2134" version="1.1" xmlns="http://www.w3.org/2000/svg" xmlns:xlink="http://www.w3.org/1999/xlink" xml:space="preserve" xmlns:serif="http://www.serif.com/" style="fill-rule:evenodd;clip-rule:evenodd;stroke-linejoin:round;stroke-miterlimit:2;"><g><path d="M2066.68,891.985c-18.486,-29.543 -35.947,-57.453 -42.481,-81.885c-7.035,-26.331 -5.93,-60.376 -4.758,-96.424c1.881,-57.924 4.014,-123.578 -28.914,-180.49c-33.386,-57.705 -91.771,-88.756 -143.278,-116.149c-31.437,-16.718 -61.127,-32.508 -79.79,-51.17c-18.658,-18.659 -34.448,-48.353 -51.17,-79.786c-27.393,-51.515 -58.444,-109.896 -116.153,-143.282c-56.912,-32.928 -122.558,-30.812 -180.49,-28.913c-36.052,1.163 -70.097,2.271 -96.424,-4.763c-24.437,-6.534 -52.342,-23.995 -81.89,-42.482c-49.919,-31.231 -106.507,-66.641 -174.668,-66.641c-68.162,0 -124.75,35.41 -174.677,66.646c-29.544,18.486 -57.454,35.951 -81.89,42.482c-26.331,7.034 -60.372,5.925 -96.424,4.762c-57.92,-1.89 -123.574,-4.015 -180.485,28.913c-57.71,33.386 -88.756,91.771 -116.154,143.282c-16.718,31.433 -32.512,61.128 -51.17,79.786c-18.659,18.654 -48.349,34.448 -79.786,51.166c-51.511,27.393 -109.892,58.444 -143.282,116.154c-32.928,56.911 -30.795,122.565 -28.918,180.489c1.172,36.048 2.276,70.097 -4.762,96.428c-6.534,24.437 -23.991,52.342 -42.482,81.886c-31.227,49.923 -66.637,106.511 -66.637,174.673c0,68.161 35.41,124.749 66.65,174.681c18.486,29.543 35.947,57.453 42.482,81.886c7.034,26.33 5.929,60.375 4.758,96.424c-1.882,57.923 -4.015,123.578 28.913,180.489c33.386,57.705 91.771,88.756 143.278,116.149c31.437,16.718 61.127,32.508 79.79,51.171c18.658,18.658 34.448,48.352 51.17,79.785c27.394,51.515 58.445,109.897 116.154,143.282c56.911,32.928 122.553,30.812 180.489,28.914c36.048,-1.168 70.098,-2.272 96.424,4.762c24.437,6.534 52.342,23.996 81.89,42.482c49.919,31.231 106.507,66.641 174.669,66.641c68.161,0 124.749,-35.41 174.677,-66.645c29.543,-18.486 57.453,-35.952 81.89,-42.482c26.33,-7.039 60.371,-5.93 96.424,-4.762c57.919,1.898 123.578,4.018 180.485,-28.914c57.709,-33.386 88.756,-91.771 116.153,-143.282c16.718,-31.433 32.512,-61.127 51.171,-79.786c18.658,-18.654 48.348,-34.448 79.785,-51.166c51.511,-27.393 109.892,-58.444 143.282,-116.153c32.928,-56.912 30.795,-122.566 28.918,-180.489c-1.172,-36.049 -2.276,-70.098 4.762,-96.429c6.535,-24.437 23.992,-52.342 42.482,-81.885c31.227,-49.924 66.637,-106.512 66.637,-174.673c0,-68.162 -35.41,-124.75 -66.65,-174.682Zm-106.796,282.533c-22.606,36.123 -45.98,73.478 -57.395,116.182c-11.846,44.33 -10.385,89.428 -8.97,133.048c1.462,45.039 2.843,87.576 -12.044,113.306c-15.332,26.499 -53.249,46.66 -93.392,68.011c-38.224,20.329 -77.745,41.348 -109.711,73.314c-31.967,31.966 -52.989,71.488 -73.315,109.711c-21.35,40.147 -41.516,78.064 -68.01,93.392c-25.73,14.888 -68.271,13.51 -113.306,12.045c-43.616,-1.416 -88.714,-2.886 -133.044,8.965c-42.704,11.415 -80.059,34.789 -116.187,57.395c-39.004,24.407 -75.851,47.462 -107.846,47.462c-31.996,0 -68.838,-23.055 -107.847,-47.462c-36.128,-22.606 -73.482,-45.98 -116.187,-57.395c-29.732,-7.949 -59.813,-9.902 -89.562,-9.902c-14.602,0 -29.123,0.47 -43.481,0.941c-45.04,1.457 -87.576,2.847 -113.307,-12.044c-26.498,-15.328 -46.66,-53.25 -68.01,-93.393c-20.33,-38.223 -41.348,-77.744 -73.314,-109.711c-31.967,-31.966 -71.492,-52.989 -109.716,-73.318c-40.143,-21.351 -78.06,-41.516 -93.388,-68.007c-14.887,-25.734 -13.505,-68.271 -12.044,-113.306c1.415,-43.616 2.881,-88.718 -8.966,-133.048c-11.414,-42.7 -34.788,-80.054 -57.39,-116.178c-24.416,-39.013 -47.471,-75.864 -47.471,-107.859c0,-31.996 23.055,-68.842 47.463,-107.851c22.605,-36.124 45.98,-73.478 57.394,-116.183c11.847,-44.33 10.385,-89.428 8.97,-133.048c-1.461,-45.039 -2.843,-87.576 12.044,-113.306c15.332,-26.498 53.249,-46.66 93.392,-68.01c38.224,-20.33 77.745,-41.348 109.712,-73.315c31.966,-31.966 52.989,-71.487 73.314,-109.711c21.35,-40.147 41.516,-78.064 68.01,-93.392c25.735,-14.887 68.276,-13.501 113.307,-12.044c43.615,1.423 88.718,2.889 133.043,-8.966c42.705,-11.414 80.059,-34.789 116.187,-57.394c39.005,-24.408 75.851,-47.463 107.847,-47.463c31.995,0 68.837,23.055 107.846,47.463c36.128,22.605 73.483,45.98 116.187,57.394c44.326,11.847 89.432,10.385 133.044,8.966c45.043,-1.453 87.576,-2.843 113.306,12.044c26.499,15.328 46.66,53.249 68.01,93.392c20.33,38.224 41.348,77.745 73.315,109.711c31.966,31.967 71.492,52.989 109.715,73.319c40.143,21.35 78.06,41.516 93.388,68.006c14.887,25.735 13.506,68.271 12.044,113.306c-1.415,43.616 -2.881,88.718 8.966,133.048c11.414,42.7 34.789,80.055 57.39,116.179c24.416,39.008 47.471,75.859 47.471,107.855c0,31.995 -23.055,68.842 -47.462,107.851Z" style="fill-rule:nonzero;"/><path d="M949.527,1196.4l-174.279,-174.274l-89.079,89.079l261.56,261.565l498.52,-478.577l-87.248,-90.889l-409.474,393.096Z" style="fill:#020000;fill-rule:nonzero;"/><path d="M1066.67,331.759c-405.229,-0 -734.908,329.679 -734.908,734.908c-0,405.228 329.679,734.908 734.908,734.908c405.228,-0 734.908,-329.68 734.908,-734.908c-0,-405.229 -329.68,-734.908 -734.908,-734.908Zm-0,1343.83c-335.761,-0 -608.924,-273.164 -608.924,-608.924c-0,-335.761 273.163,-608.924 608.924,-608.924c335.76,-0 608.924,273.163 608.924,608.924c-0,335.76 -273.164,608.924 -608.924,608.924Z" style="fill-rule:nonzero;"/></g></svg>