<svg id="_x33_0" enable-background="new 0 0 64 64" height="512" viewBox="0 0 64 64" width="512" xmlns="http://www.w3.org/2000/svg"><path d="m62 24v10c0 1.66-1.34 3-3 3h-1v-16h1c1.66 0 3 1.34 3 3z" fill="#fcd770"/><path d="m52 11h4c1.1 0 2 .9 2 2v8 16 14c0 1.1-.9 2-2 2h-4c1.1 0 2-.9 2-2v-38c0-1.1-.9-2-2-2z" fill="#969faa"/><path d="m54 13v38c0 1.1-.9 2-2 2h-16l-.31-.11c.2-.59.31-1.23.31-1.89v-38c0-1.1.9-2 2-2h14c1.1 0 2 .9 2 2z" fill="#ccd1d9"/><path d="m50 16v32c0 .55-.45 1-1 1h-8c-.55 0-1-.45-1-1v-32c0-.55.45-1 1-1h8c.55 0 1 .45 1 1z" fill="#e6e9ed"/><path d="m36 13v38c0 .66-.11 1.3-.31 1.89-.78 2.38-3.04 4.11-5.69 4.11h-22c-3.31 0-6-2.69-6-6v-38c0-3.31 2.69-6 6-6h22c3.31 0 6 2.69 6 6z" fill="#969faa"/><path d="m32 13v28c0-7.37-4.75-13.39-9.71-15.33 1.05-1.36 2.71-4.85 2.71-6.67 0-2-3-2-3-2s-1-2-3-2-3 2-3 2-3 0-3 2c0 1.82 1.66 5.31 2.71 6.67-4.96 1.94-9.71 7.96-9.71 15.33v-28c0-1.1.9-2 2-2h22c1.1 0 2 .9 2 2z" fill="#e6e9ed"/><path d="m32 41v10c0 1.1-.9 2-2 2h-22c-1.1 0-2-.9-2-2v-10c0 5 4.73 8 9.45 8h7.1c4.72 0 9.45-3 9.45-8z" fill="#e6e9ed"/><path d="m25 19c0 1.82-1.66 5.31-2.71 6.67-1.1-.44-2.22-.67-3.29-.67s-2.19.23-3.29.67c-1.05-1.36-2.71-4.85-2.71-6.67 0-2 3-2 3-2s1-2 3-2 3 2 3 2 3 0 3 2z" fill="#b4dd7f"/><path d="m22.55 49h-7.1c-4.72 0-9.45-3-9.45-8 0-7.37 4.75-13.39 9.71-15.33 1.1-.44 2.22-.67 3.29-.67s2.19.23 3.29.67c4.96 1.94 9.71 7.96 9.71 15.33 0 5-4.73 8-9.45 8z" fill="#a0d468"/><path d="m30 10h-22c-1.654 0-3 1.346-3 3v38c0 1.654 1.346 3 3 3h22c1.654 0 3-1.346 3-3v-38c0-1.654-1.346-3-3-3zm-11 14c-.95 0-1.922.178-2.89.481-.899-1.437-2.11-4.116-2.11-5.481 0-.944 1.983-1 2-1l.612-.006.28-.541c.007-.015.766-1.453 2.108-1.453s2.101 1.438 2.105 1.447l.278.549.614.004c.02 0 2.003.056 2.003 1 0 1.365-1.211 4.044-2.11 5.481-.968-.303-1.94-.481-2.89-.481zm0 2c5.435 0 12 6.691 12 15 0 4.382-4.299 7-8.455 7h-7.091c-4.155 0-8.454-2.618-8.454-7 0-8.309 6.565-15 12-15zm12 25c0 .552-.449 1-1 1h-22c-.551 0-1-.448-1-1v-4.627c2.013 2.329 5.266 3.627 8.455 3.627h7.091c3.188 0 6.442-1.298 8.455-3.627v4.627zm-7.23-25.759c1.085-1.815 2.23-4.585 2.23-6.241 0-2.074-1.999-2.814-3.426-2.968-.525-.748-1.699-2.032-3.574-2.032s-3.049 1.284-3.574 2.032c-1.427.154-3.426.894-3.426 2.968 0 1.656 1.145 4.426 2.23 6.241-2.855 1.449-5.508 4.087-7.23 7.471v-19.712c0-.552.449-1 1-1h22c.551 0 1 .448 1 1v19.712c-1.723-3.384-4.375-6.021-7.23-7.471z"/><path d="m49 14h-8c-1.103 0-2 .897-2 2v32c0 1.103.897 2 2 2h8c1.103 0 2-.897 2-2v-32c0-1.103-.897-2-2-2zm-8 34v-32h8l.001 32z"/><path d="m59 20v-7c0-1.654-1.346-3-3-3h-4-14c-.549 0-1.057.159-1.5.417-1.031-2.584-3.553-4.417-6.5-4.417h-22c-3.86 0-7 3.141-7 7v38c0 3.859 3.14 7 7 7h22c2.785 0 5.189-1.639 6.315-4h15.685 4c1.654 0 3-1.346 3-3v-13c2.206 0 4-1.794 4-4v-10c0-2.206-1.794-4-4-4zm-24 31c0 2.757-2.243 5-5 5h-22c-2.757 0-5-2.243-5-5v-38c0-2.757 2.243-5 5-5h22c2.757 0 5 2.243 5 5zm1.92 1c.047-.328.08-.66.08-1v-38c0-.552.449-1 1-1h14c.551 0 1 .448 1 1v38c0 .552-.449 1-1 1zm20.08-1c0 .552-.449 1-1 1h-1.184c.112-.314.184-.648.184-1v-38c0-.352-.072-.686-.184-1h1.184c.551 0 1 .448 1 1zm4-17c0 1.103-.897 2-2 2v-14c1.103 0 2 .897 2 2z"/><path d="m45 26h2v2h-2z"/><path d="m18 46h2v-2h3v-8h-6v-4h4v2h2v-4h-3v-2h-2v2h-3v8h6v4h-4v-2h-2v4h3z"/></svg>